<?xml version="1.0" encoding="iso-8859-1"?>
<!-- Generator: Adobe Illustrator 22.0.1, SVG Export Plug-In . SVG Version: 6.00 Build 0)  -->
<svg version="1.1" id="Layer_1" xmlns="http://www.w3.org/2000/svg" xmlns:xlink="http://www.w3.org/1999/xlink" x="0px" y="0px"
	 viewBox="0 0 64 64" style="enable-background:new 0 0 64 64;" xml:space="preserve">
<style type="text/css">
	.st0{fill:#F8F3F3;}
	.st1{fill:#63312D;}
	.st2{fill:#E1DDDD;}
	.st3{fill:#84DBFF;}
	.st4{fill:#CAF4FF;}
	.st5{fill:#52BADB;}
	.st6{fill:#F9DD9D;}
	.st7{fill:#FFEECF;}
	.st8{fill:#EFC36A;}
	.st9{fill:#F7A085;}
	.st10{fill:#82D9FF;}
	.st11{fill:#F7DB9B;}
	.st12{fill:#F9A287;}
	.st13{fill:#FFC8BB;}
	.st14{fill:#52B8D9;}
	.st15{fill:#DB785A;}
	.st16{fill:#EDCB85;}
	.st17{fill:#DBAB56;}
	.st18{fill:#D3A553;}
	.st19{fill:#FFFFFF;}
</style>
<g>
	<path class="st10" d="M43.252,60.892H6.606c-0.552,0-1-0.448-1-1V8.083c0-0.552,0.448-1,1-1h36.645c0.552,0,1,0.448,1,1v51.808
		C44.252,60.444,43.804,60.892,43.252,60.892z"/>
	<path class="st4" d="M7.372,9.786c0-0.552,0.448-1,1-1h35.88V8.083c0-0.552-0.448-1-1-1H6.606c-0.552,0-1,0.448-1,1v51.808
		c0,0.552,0.448,1,1,1h0.766V9.786z"/>
	<path class="st1" d="M43.252,61.392H6.606c-0.827,0-1.5-0.673-1.5-1.5V8.083c0-0.827,0.673-1.5,1.5-1.5h36.646
		c0.827,0,1.5,0.673,1.5,1.5v51.808C44.752,60.719,44.079,61.392,43.252,61.392z M6.606,7.583c-0.276,0-0.5,0.224-0.5,0.5v51.808
		c0,0.276,0.224,0.5,0.5,0.5h36.646c0.275,0,0.5-0.224,0.5-0.5V8.083c0-0.276-0.225-0.5-0.5-0.5H6.606z"/>
	<path class="st14" d="M46.252,7.083h-3c0.552,0,1,0.448,1,1v51.808c0,0.552-0.448,1-1,1h3c0.552,0,1-0.448,1-1V8.083
		C47.252,7.531,46.804,7.083,46.252,7.083z"/>
	<path class="st1" d="M46.252,61.392h-3c-0.276,0-0.5-0.224-0.5-0.5s0.224-0.5,0.5-0.5c0.275,0,0.5-0.224,0.5-0.5V8.083
		c0-0.276-0.225-0.5-0.5-0.5c-0.276,0-0.5-0.224-0.5-0.5s0.224-0.5,0.5-0.5h3c0.827,0,1.5,0.673,1.5,1.5v51.808
		C47.752,60.719,47.079,61.392,46.252,61.392z M44.666,60.392h1.586c0.275,0,0.5-0.224,0.5-0.5V8.083c0-0.276-0.225-0.5-0.5-0.5
		h-1.586c0.056,0.156,0.086,0.325,0.086,0.5v51.808C44.752,60.067,44.722,60.235,44.666,60.392z"/>
	<rect x="9.348" y="11.375" class="st0" width="31.029" height="45.444"/>
	<path class="st1" d="M40.377,57.319H9.348c-0.276,0-0.5-0.224-0.5-0.5V11.375c0-0.276,0.224-0.5,0.5-0.5h31.029
		c0.276,0,0.5,0.224,0.5,0.5v45.444C40.877,57.096,40.653,57.319,40.377,57.319z M9.848,56.319h30.029V11.875H9.848V56.319z"/>
	<rect x="17.929" y="7.083" class="st6" width="14" height="6.604"/>
	<rect x="17.929" y="7.083" class="st7" width="14" height="1.703"/>
	<path class="st1" d="M31.929,14.188h-14c-0.276,0-0.5-0.224-0.5-0.5V7.083c0-0.276,0.224-0.5,0.5-0.5h14c0.276,0,0.5,0.224,0.5,0.5
		v6.604C32.429,13.964,32.206,14.188,31.929,14.188z M18.429,13.188h13V7.583h-13V13.188z"/>
	<path class="st6" d="M24.885,3.108c-2.195,0-3.975,1.78-3.975,3.975h7.95C28.86,4.888,27.081,3.108,24.885,3.108z"/>
	<path class="st1" d="M28.86,7.583h-7.95c-0.276,0-0.5-0.224-0.5-0.5c0-2.468,2.007-4.475,4.475-4.475s4.475,2.007,4.475,4.475
		C29.36,7.36,29.137,7.583,28.86,7.583z M21.446,6.583h6.879c-0.243-1.68-1.693-2.975-3.439-2.975S21.689,4.903,21.446,6.583z"/>
	<rect x="13.846" y="17.417" class="st1" width="22.167" height="1"/>
	<rect x="13.846" y="19.917" class="st1" width="22.167" height="1"/>
	<rect x="19.721" y="30.354" class="st1" width="16.292" height="1"/>
	<rect x="13.846" y="34.042" class="st1" width="22.167" height="1"/>
	<rect x="13.846" y="37.729" class="st1" width="22.167" height="1"/>
	<rect x="13.846" y="41.417" class="st1" width="22.167" height="1"/>
	<rect x="13.846" y="45.104" class="st1" width="22.167" height="1"/>
	<rect x="13.846" y="48.792" class="st1" width="22.167" height="1"/>
	<rect x="14.346" y="27.146" class="st12" width="3.708" height="3.708"/>
	<path class="st1" d="M18.054,31.354h-3.708c-0.276,0-0.5-0.224-0.5-0.5v-3.708c0-0.276,0.224-0.5,0.5-0.5h3.708
		c0.276,0,0.5,0.224,0.5,0.5v3.708C18.554,31.13,18.331,31.354,18.054,31.354z M14.846,30.354h2.708v-2.708h-2.708V30.354z"/>
	<path class="st6" d="M54.353,60.892l1.935-3.806V27.398c0-1.415-1.147-2.562-2.563-2.562h0c-1.415,0-2.562,1.147-2.562,2.562
		v29.688l1.935,3.806H54.353z"/>
	<path class="st10" d="M56.288,32.969v-5.571c0-1.415-1.147-2.563-2.563-2.563s-2.563,1.147-2.563,2.563v5.571H56.288z"/>
	<rect x="51.163" y="50.917" class="st10" width="5.125" height="2.052"/>
	<path class="st1" d="M54.354,61.392h-1.256c-0.188,0-0.36-0.105-0.445-0.273l-1.935-3.806c-0.036-0.07-0.055-0.148-0.055-0.227
		V27.398c0-1.688,1.374-3.063,3.063-3.063s3.063,1.374,3.063,3.063v29.688c0,0.079-0.019,0.156-0.055,0.227l-1.935,3.806
		C54.714,61.286,54.542,61.392,54.354,61.392z M53.404,60.392h0.643l1.741-3.426V27.398c0-1.137-0.925-2.063-2.063-2.063
		s-2.063,0.925-2.063,2.063v29.568L53.404,60.392z"/>
	<path class="st1" d="M58.894,36.938h-1V29.5h-1.605v-1h2.105c0.276,0,0.5,0.224,0.5,0.5V36.938z"/>
	<rect x="51.163" y="32.469" class="st1" width="5.125" height="1"/>
	<rect x="51.231" y="50.417" class="st1" width="4.958" height="1"/>
	<rect x="51.231" y="52.469" class="st1" width="4.958" height="1"/>
</g>
</svg>
